<svg width="20" height="20" viewBox="0 0 20 20" fill="none" xmlns="http://www.w3.org/2000/svg">
<path d="M16.6666 10.5C16.9427 10.5 17.1666 10.2761 17.1666 10C17.1666 9.72386 16.9427 9.5 16.6666 9.5V10.5ZM3.33325 10L2.9797 9.64645C2.78444 9.84171 2.78444 10.1583 2.9797 10.3536L3.33325 10ZM8.68681 5.35355C8.88207 5.15829 8.88207 4.84171 8.68681 4.64645C8.49154 4.45118 8.17496 4.45118 7.9797 4.64645L8.68681 5.35355ZM7.9797 15.3536C8.17496 15.5488 8.49154 15.5488 8.68681 15.3536C8.88207 15.1583 8.88207 14.8417 8.68681 14.6464L7.9797 15.3536ZM16.6666 9.5H3.33325V10.5H16.6666V9.5ZM3.68681 10.3536L8.68681 5.35355L7.9797 4.64645L2.9797 9.64645L3.68681 10.3536ZM2.9797 10.3536L7.9797 15.3536L8.68681 14.6464L3.68681 9.64645L2.9797 10.3536Z" fill="white"/>
</svg>
