<svg width="46" height="44" viewBox="0 0 46 44" fill="none" xmlns="http://www.w3.org/2000/svg">
<path d="M21.2805 1.89484C22.0555 0.590026 23.9445 0.590027 24.7195 1.89484L30.7305 12.0145C31.0112 12.487 31.4739 12.8232 32.01 12.9441L43.4919 15.5338C44.9724 15.8677 45.5561 17.6642 44.5546 18.8045L36.7878 27.6485C36.4251 28.0614 36.2484 28.6054 36.2991 29.1526L37.3842 40.8727C37.5241 42.3839 35.9959 43.4942 34.602 42.8942L23.7908 38.2404C23.286 38.0231 22.714 38.0231 22.2092 38.2404L11.398 42.8942C10.0041 43.4942 8.47587 42.3839 8.61579 40.8727L9.70094 29.1526C9.75161 28.6054 9.57487 28.0614 9.21222 27.6485L1.44538 18.8045C0.443936 17.6642 1.02765 15.8677 2.50811 15.5338L13.99 12.9441C14.5261 12.8232 14.9888 12.487 15.2695 12.0145L21.2805 1.89484Z" fill="#292E4F"/>
</svg>
