<svg width="27" height="26" viewBox="0 0 27 26" fill="none" xmlns="http://www.w3.org/2000/svg">
<path d="M11.7805 1.89484C12.5555 0.59003 14.4445 0.590028 15.2195 1.89484L18.1259 6.78771C18.4065 7.2602 18.8693 7.59639 19.4054 7.71731L24.9569 8.96943C26.4373 9.30334 27.021 11.0998 26.0196 12.2402L22.2643 16.5162C21.9017 16.9292 21.7249 17.4731 21.7756 18.0204L22.3003 23.6871C22.4402 25.1983 20.912 26.3085 19.518 25.7085L14.2908 23.4584C13.786 23.2411 13.214 23.2411 12.7092 23.4584L7.482 25.7085C6.08802 26.3085 4.55983 25.1983 4.69975 23.6871L5.22442 18.0204C5.27509 17.4731 5.09835 16.9292 4.7357 16.5162L0.980421 12.2402C-0.0210252 11.0998 0.562687 9.30334 2.04314 8.96943L7.59465 7.71731C8.13075 7.59639 8.59347 7.26021 8.87413 6.78771L11.7805 1.89484Z" fill="#F805AF"/>
</svg>
