<svg width="27" height="26" viewBox="0 0 27 26" fill="none" xmlns="http://www.w3.org/2000/svg">
<path d="M12.2104 2.15019C12.7916 1.17158 14.2084 1.17158 14.7896 2.15019L17.696 7.04305C18.0468 7.63368 18.6252 8.05391 19.2953 8.20506L24.8468 9.45717C25.9572 9.70761 26.395 11.055 25.6439 11.9102L21.8886 16.1863C21.4353 16.7025 21.2144 17.3824 21.2777 18.0665L21.8024 23.7332C21.9073 24.8666 20.7612 25.6993 19.7157 25.2492L14.4885 22.9991C13.8575 22.7275 13.1425 22.7275 12.5115 22.9991L7.28431 25.2492C6.23882 25.6993 5.09268 24.8666 5.19762 23.7332L5.72229 18.0665C5.78563 17.3824 5.5647 16.7025 5.11139 16.1863L1.35611 11.9102C0.605026 11.055 1.04281 9.70761 2.15315 9.45718L7.70466 8.20506C8.37479 8.05391 8.95319 7.63368 9.30401 7.04306L12.2104 2.15019Z" stroke="#F805AF"/>
</svg>
