<svg width="24" height="24" viewBox="0 0 24 24" fill="none" xmlns="http://www.w3.org/2000/svg">
<path d="M9.56944 4.51191C9.29988 4.19741 8.8264 4.16099 8.51191 4.43056C8.19741 4.70012 8.16099 5.1736 8.43056 5.48809L9.56944 4.51191ZM15 12L15.5694 12.4881C15.8102 12.2072 15.8102 11.7928 15.5694 11.5119L15 12ZM8.43056 18.5119C8.16099 18.8264 8.19741 19.2999 8.51191 19.5694C8.8264 19.839 9.29988 19.8026 9.56944 19.4881L8.43056 18.5119ZM8.43056 5.48809L14.4306 12.4881L15.5694 11.5119L9.56944 4.51191L8.43056 5.48809ZM14.4306 11.5119L8.43056 18.5119L9.56944 19.4881L15.5694 12.4881L14.4306 11.5119Z" fill="white"/>
</svg>
