<svg width="18" height="18" viewBox="0 0 18 18" fill="none" xmlns="http://www.w3.org/2000/svg">
<g clip-path="url(#clip0_1_515)">
<path d="M1.93613 14.87L2.66065 15.0638L1.93613 14.87ZM2.18217 13.9505L2.90668 14.1443L2.18217 13.9505ZM4.04954 15.8178L3.85569 15.0933H3.85569L4.04954 15.8178ZM3.13001 16.0639L2.93616 15.3394L3.13001 16.0639ZM2.08515 13.0877L2.76162 12.7638L2.76162 12.7638L2.08515 13.0877ZM4.91232 15.9149L5.23618 15.2384L5.23618 15.2384L4.91232 15.9149ZM12.75 10.5C12.75 13.3995 10.3995 15.75 7.5 15.75V17.25C11.2279 17.25 14.25 14.2279 14.25 10.5H12.75ZM2.25 10.5C2.25 7.60051 4.60051 5.25 7.5 5.25V3.75C3.77208 3.75 0.75 6.77208 0.75 10.5H2.25ZM7.5 5.25C10.3995 5.25 12.75 7.60051 12.75 10.5H14.25C14.25 6.77208 11.2279 3.75 7.5 3.75V5.25ZM2.66065 15.0638L2.90668 14.1443L1.45765 13.7566L1.21162 14.6761L2.66065 15.0638ZM3.85569 15.0933L2.93616 15.3394L3.32387 16.7884L4.24339 16.5423L3.85569 15.0933ZM2.76162 12.7638C2.4339 12.0793 2.25 11.3122 2.25 10.5H0.75C0.75 11.5411 0.986216 12.5291 1.40868 13.4115L2.76162 12.7638ZM7.5 15.75C6.68783 15.75 5.92072 15.5661 5.23618 15.2384L4.58846 16.5913C5.47089 17.0138 6.45891 17.25 7.5 17.25V15.75ZM4.24339 16.5423C4.33062 16.519 4.45183 16.5259 4.58846 16.5913L5.23618 15.2384C4.83424 15.0459 4.34528 14.9623 3.85569 15.0933L4.24339 16.5423ZM2.90668 14.1443C3.03768 13.6547 2.95405 13.1658 2.76162 12.7638L1.40868 13.4115C1.47409 13.5482 1.48099 13.6694 1.45765 13.7566L2.90668 14.1443ZM1.21162 14.6761C0.868535 15.9584 2.04161 17.1315 3.32387 16.7884L2.93616 15.3394C2.76891 15.3841 2.6159 15.2311 2.66065 15.0638L1.21162 14.6761Z" fill="white"/>
<path d="M16.0639 9.61999L16.7884 9.42613H16.7884L16.0639 9.61999ZM15.9683 9.26296L15.2438 9.45681V9.45681L15.9683 9.26296ZM14.513 10.7183L14.7068 9.99382H14.7068L14.513 10.7183ZM14.87 10.8139L14.6761 11.5384H14.6761L14.87 10.8139ZM16.0616 8.39829L16.7438 8.70991L16.0616 8.39829ZM13.6483 10.8116L13.3367 10.1294L13.3367 10.1294L13.6483 10.8116ZM17.25 6.375C17.25 3.2684 14.7316 0.75 11.625 0.75V2.25C13.9032 2.25 15.75 4.09683 15.75 6.375H17.25ZM16.7884 9.42613L16.6929 9.06911L15.2438 9.45681L15.3394 9.81384L16.7884 9.42613ZM14.3191 11.4429L14.6761 11.5384L15.0638 10.0894L14.7068 9.99382L14.3191 11.4429ZM16.7438 8.70991C17.0691 7.99776 17.25 7.20649 17.25 6.375H15.75C15.75 6.98714 15.6171 7.56622 15.3794 8.08667L16.7438 8.70991ZM13.7887 11.5686C13.8462 11.5446 13.9033 11.5197 13.9599 11.4938L13.3367 10.1294C13.2953 10.1483 13.2535 10.1666 13.2113 10.1842L13.7887 11.5686ZM11.625 0.75C9.28533 0.75 7.28099 2.17826 6.43299 4.20752L7.81701 4.78588C8.43993 3.29522 9.91128 2.25 11.625 2.25V0.75ZM14.7068 9.99382C14.2156 9.8624 13.7309 9.94935 13.3367 10.1294L13.9599 11.4938C14.1089 11.4258 14.2335 11.4199 14.3191 11.4429L14.7068 9.99382ZM16.6929 9.06911C16.6699 8.98348 16.6758 8.85885 16.7438 8.70991L15.3794 8.08667C15.1994 8.48086 15.1124 8.96562 15.2438 9.45681L16.6929 9.06911ZM15.3394 9.81384C15.3841 9.98109 15.2311 10.1341 15.0638 10.0894L14.6761 11.5384C15.9584 11.8815 17.1315 10.7084 16.7884 9.42613L15.3394 9.81384Z" fill="white"/>
<path fill-rule="evenodd" clip-rule="evenodd" d="M4.88883 10.5H4.89558H4.88883Z" fill="white"/>
<path fill-rule="evenodd" clip-rule="evenodd" d="M7.50687 10.5H7.51362H7.50687Z" fill="white"/>
<path fill-rule="evenodd" clip-rule="evenodd" d="M10.1251 10.5H10.1319H10.1251Z" fill="white"/>
<path d="M4.88883 10.5H4.89558M7.50687 10.5H7.51362M10.1251 10.5H10.1319" stroke="white" stroke-width="2" stroke-linecap="round" stroke-linejoin="round"/>
</g>
<defs>
<clipPath id="clip0_1_515">
<rect width="18" height="18" fill="white"/>
</clipPath>
</defs>
</svg>
