<svg width="18" height="18" viewBox="0 0 18 18" fill="none" xmlns="http://www.w3.org/2000/svg">
<path d="M15.0615 2.26337L15.0876 3.01292L15.0615 2.26337ZM12.375 2.61564L12.1599 1.89715V1.89715L12.375 2.61564ZM10.2554 3.60213L9.8797 2.953L9.8797 2.953L10.2554 3.60213ZM2.9868 2.30623L2.94079 3.05481L2.9868 2.30623ZM5.25 2.61564L5.44136 1.89047L5.44136 1.89047L5.25 2.61564ZM7.71169 3.65666L7.3611 4.31967L7.71169 3.65666ZM10.2207 15.052L10.5735 15.7138L10.2207 15.052ZM12.75 13.9751L12.5586 13.2499H12.5586L12.75 13.9751ZM14.9889 13.6672L15.0357 14.4157L14.9889 13.6672ZM7.77931 15.052L7.42651 15.7138H7.42652L7.77931 15.052ZM5.25 13.9751L5.44136 13.2499H5.44136L5.25 13.9751ZM3.01114 13.6672L2.96433 14.4157H2.96433L3.01114 13.6672ZM2.25 12.1077V3.74841H0.75V12.1077H2.25ZM17.25 12.1077V3.69996H15.75V12.1077H17.25ZM15.0354 1.51383C14.1792 1.54365 13.0428 1.63282 12.1599 1.89715L12.5901 3.33414C13.2775 3.12834 14.2509 3.04206 15.0876 3.01292L15.0354 1.51383ZM12.1599 1.89715C11.3918 2.12711 10.5368 2.5727 9.8797 2.953L10.6311 4.25125C11.2661 3.8837 11.9968 3.51176 12.5901 3.33414L12.1599 1.89715ZM2.94079 3.05481C3.66268 3.09918 4.46806 3.18498 5.05864 3.34082L5.44136 1.89047C4.70218 1.69541 3.77548 1.60328 3.03281 1.55764L2.94079 3.05481ZM5.05864 3.34082C5.75846 3.52549 6.63083 3.93352 7.3611 4.31967L8.06228 2.99364C7.31333 2.59762 6.31536 2.1211 5.44136 1.89047L5.05864 3.34082ZM10.5735 15.7138C11.3146 15.3188 12.2192 14.8908 12.9414 14.7003L12.5586 13.2499C11.6587 13.4874 10.626 13.9861 9.86789 14.3902L10.5735 15.7138ZM12.9414 14.7003C13.5252 14.5462 14.3193 14.4605 15.0357 14.4157L14.942 12.9186C14.2043 12.9648 13.2899 13.0569 12.5586 13.2499L12.9414 14.7003ZM8.13211 14.3902C7.37403 13.9861 6.34134 13.4874 5.44136 13.2499L5.05864 14.7003C5.78084 14.8908 6.68537 15.3188 7.42651 15.7138L8.13211 14.3902ZM5.44136 13.2499C4.7101 13.0569 3.79569 12.9648 3.05796 12.9186L2.96433 14.4157C3.68073 14.4605 4.47484 14.5462 5.05864 14.7003L5.44136 13.2499ZM15.75 12.1077C15.75 12.5157 15.4082 12.8895 14.942 12.9186L15.0357 14.4157C16.2327 14.3408 17.25 13.3662 17.25 12.1077H15.75ZM17.25 3.69996C17.25 2.50476 16.2962 1.46991 15.0354 1.51383L15.0876 3.01292C15.4344 3.00084 15.75 3.28648 15.75 3.69996H17.25ZM0.75 12.1077C0.75 13.3662 1.76727 14.3408 2.96433 14.4157L3.05796 12.9186C2.5918 12.8895 2.25 12.5157 2.25 12.1077H0.75ZM9.86789 14.3902C9.32881 14.6775 8.67119 14.6775 8.13211 14.3902L7.42652 15.7138C8.40662 16.2363 9.59338 16.2363 10.5735 15.7138L9.86789 14.3902ZM9.8797 2.953C9.32119 3.27623 8.62596 3.2917 8.06228 2.99364L7.3611 4.31967C8.3882 4.86277 9.6321 4.82939 10.6311 4.25125L9.8797 2.953ZM2.25 3.74841C2.25 3.32577 2.58086 3.03269 2.94079 3.05481L3.03281 1.55764C1.74859 1.47871 0.75 2.5238 0.75 3.74841H2.25Z" fill="white"/>
<path d="M8.25 4.12537V15.3754H9.75V4.12537H8.25Z" fill="white"/>
</svg>
